<?xml version="1.0" encoding="UTF-8"?>
<svg width="512" height="512" version="1.1" viewBox="0 0 512 512" xmlns="http://www.w3.org/2000/svg">
 <path d="m460.8 51.2h-409.6c-28.16 0-51.2 23.04-51.2 51.2v307.2c0 28.16 23.04 51.2 51.2 51.2h409.6c28.16 0 51.2-23.04 51.2-51.2v-307.2c0-28.16-23.04-51.2-51.2-51.2zm-409.6 25.6h409.6c14.08 0 25.6 11.52 25.6 25.6v51.2h-460.8v-51.2c0-14.08 11.52-25.6 25.6-25.6zm409.6 358.4h-409.6c-14.08 0-25.6-11.52-25.6-25.6v-230.4h460.8v230.4c0 14.08-11.52 25.6-25.6 25.6z" fill="#f57c00"/>
 <path d="m204.8 256h-76.8c-7.168 0-12.8 5.632-12.8 12.8v76.8c0 7.168 5.632 12.8 12.8 12.8h76.8c7.168 0 12.8-5.632 12.8-12.8v-76.8c0-7.168-5.632-12.8-12.8-12.8zm-12.8 76.8h-51.2v-51.2h51.2z" fill="#f57c00"/>
 <path d="m384 256h-128c-7.168 0-12.8 5.632-12.8 12.8s5.632 12.8 12.8 12.8h128c7.168 0 12.8-5.632 12.8-12.8s-5.632-12.8-12.8-12.8z" fill="#f57c00"/>
 <path d="m384 307.2h-128c-7.168 0-12.8 5.632-12.8 12.8s5.632 12.8 12.8 12.8h128c7.168 0 12.8-5.632 12.8-12.8s-5.632-12.8-12.8-12.8z" fill="#f57c00"/>
 <path d="m384 358.4h-128c-7.168 0-12.8 5.632-12.8 12.8s5.632 12.8 12.8 12.8h128c7.168 0 12.8-5.632 12.8-12.8s-5.632-12.8-12.8-12.8z" fill="#f57c00"/>
</svg>